<svg width="30" height="60" viewBox="0 0 30 60" fill="none" xmlns="http://www.w3.org/2000/svg">
  <!-- Extracted from bubble-others.svg (left cap + tail). -->
  <path d="M9.66393 20.0556C9.66393 9.20175 18.4627 0.402954 29.3166 0.402954V28.8475H9.66393V20.0556Z" fill="#26252A"/>
  <rect x="9.66393" y="28.8475" width="19.6526" height="2.12144" fill="#26252A"/>
  <path fill-rule="evenodd" clip-rule="evenodd" d="M10.0206 43.5076C9.78652 42.2948 9.66391 41.0422 9.66391 39.7609V30.969H29.3165V59.4136C24.5575 59.4136 20.1936 57.722 16.7932 54.9073C13.4008 57.1673 7.96114 59.3155 1.38911 58.1206C3.19922 57.3449 10.1811 52.6903 9.92249 43.3812C9.95387 43.4243 9.9866 43.4665 10.0206 43.5076Z" fill="#26252A"/>
  <path d="M10.0206 43.5076L9.71002 43.7643L10.4163 43.4313L10.0206 43.5076ZM9.66391 30.969V30.566H9.26098V30.969H9.66391ZM29.3165 30.969H29.7195V30.566H29.3165V30.969ZM29.3165 59.4136V59.8165H29.7195V59.4136H29.3165ZM16.7932 54.9073L17.0501 54.5969L16.8192 54.4058L16.5698 54.572L16.7932 54.9073ZM1.38911 58.1206L1.23039 57.7503L-7.15256e-07 58.2776L1.31704 58.5171L1.38911 58.1206ZM9.92249 43.3812L10.2484 43.1442L9.48362 42.0927L9.51972 43.3923L9.92249 43.3812ZM9.66391 39.7609H9.26098C9.26098 41.0679 9.38606 42.3461 9.62502 43.584L10.0206 43.5076L10.4163 43.4313C10.187 42.2434 10.0668 41.0164 10.0668 39.7609H9.66391ZM9.66391 30.969H9.26098V39.7609H9.66391H10.0668V30.969H9.66391ZM29.3165 30.969V30.566H9.66391V30.969V31.3719H29.3165V30.969ZM29.3165 59.4136H29.7195V30.969H29.3165H28.9136V59.4136H29.3165ZM16.7932 54.9073L16.5363 55.2177C20.0062 58.09 24.4603 59.8165 29.3165 59.8165V59.4136V59.0106C24.6547 59.0106 20.3809 57.354 17.0501 54.5969L16.7932 54.9073ZM1.38911 58.1206L1.31704 58.5171C8.0174 59.7353 13.5618 57.5442 17.0166 55.2426L16.7932 54.9073L16.5698 54.572C13.2398 56.7904 7.90488 58.8958 1.46119 57.7242L1.38911 58.1206ZM9.92249 43.3812L9.51972 43.3923C9.64593 47.9357 8.00755 51.3359 6.11693 53.6992C4.21841 56.0724 2.07373 57.3889 1.23039 57.7503L1.38911 58.1206L1.54783 58.491C2.51461 58.0766 4.76591 56.678 6.7462 54.2026C8.73439 51.7174 10.4576 48.1357 10.3253 43.37L9.92249 43.3812ZM10.0206 43.5076L10.3313 43.251C10.3024 43.2161 10.2748 43.1805 10.2484 43.1442L9.92249 43.3812L9.59663 43.6181C9.63298 43.6681 9.6708 43.7168 9.71002 43.7643L10.0206 43.5076Z" fill="#26252A"/>
</svg>
