<svg width="341" height="60" viewBox="0 0 341 60" fill="none" xmlns="http://www.w3.org/2000/svg">
<path d="M0.402924 20.0556C0.402924 9.20172 9.20171 0.402924 20.0556 0.402924V28.8475H0.402924V20.0556Z" fill="#278EFF" stroke="#278EFF" stroke-width="0.805851"/>
<rect x="0.402924" y="28.8475" width="19.6526" height="2.12144" fill="#278EFF" stroke="#278EFF" stroke-width="0.805851"/>
<path d="M0.402924 39.7609C0.402924 50.6148 9.20171 59.4136 20.0556 59.4136V30.969H0.402924V39.7609Z" fill="#278EFF" stroke="#278EFF" stroke-width="0.805851"/>
<rect x="20.0555" y="0.402924" width="290.877" height="59.0106" fill="#278EFF"/>
<rect x="20.0555" y="0.402924" width="290.877" height="59.0106" stroke="#278EFF" stroke-width="0.805851"/>
<path d="M330.585 20.0556C330.585 9.20174 321.787 0.402946 310.933 0.402946V0.402946V28.8475H330.585V20.0556Z" fill="#278EFF" stroke="#278EFF" stroke-width="0.805851"/>
<rect width="19.6526" height="2.12144" transform="matrix(-1 0 0 1 330.586 28.8475)" fill="#278EFF" stroke="#278EFF" stroke-width="0.805851"/>
<path fill-rule="evenodd" clip-rule="evenodd" d="M330.229 43.5077C330.463 42.2948 330.586 41.0422 330.586 39.7609V30.969H310.933V59.4136C315.692 59.4136 320.056 57.722 323.456 54.9073C326.849 57.1673 332.288 59.3155 338.86 58.1206C337.05 57.3449 330.068 52.6903 330.327 43.3812C330.296 43.4243 330.263 43.4665 330.229 43.5077Z" fill="#278EFF"/>
<path d="M330.229 43.5077L330.539 43.7643L329.833 43.4313L330.229 43.5077ZM330.586 30.969V30.566H330.988V30.969H330.586ZM310.933 30.969H310.53V30.566H310.933V30.969ZM310.933 59.4136V59.8165H310.53V59.4136H310.933ZM323.456 54.9073L323.199 54.5969L323.43 54.4058L323.68 54.572L323.456 54.9073ZM338.86 58.1206L339.019 57.7503L340.249 58.2776L338.932 58.5171L338.86 58.1206ZM330.327 43.3812L330.001 43.1442L330.766 42.0927L330.73 43.3923L330.327 43.3812ZM330.586 39.7609H330.988C330.988 41.0679 330.863 42.3461 330.624 43.584L330.229 43.5077L329.833 43.4313C330.062 42.2434 330.183 41.0164 330.183 39.7609H330.586ZM330.586 30.969H330.988V39.7609H330.586H330.183V30.969H330.586ZM310.933 30.969V30.566H330.586V30.969V31.3719H310.933V30.969ZM310.933 59.4136H310.53V30.969H310.933H311.336V59.4136H310.933ZM323.456 54.9073L323.713 55.2177C320.243 58.09 315.789 59.8165 310.933 59.8165V59.4136V59.0106C315.595 59.0106 319.869 57.354 323.199 54.5969L323.456 54.9073ZM338.86 58.1206L338.932 58.5171C332.232 59.7353 326.688 57.5442 323.233 55.2426L323.456 54.9073L323.68 54.572C327.01 56.7904 332.345 58.8958 338.788 57.7242L338.86 58.1206ZM330.327 43.3812L330.73 43.3923C330.604 47.9357 332.242 51.3359 334.133 53.6992C336.031 56.0724 338.176 57.3888 339.019 57.7503L338.86 58.1206L338.702 58.491C337.735 58.0766 335.484 56.678 333.503 54.2026C331.515 51.7174 329.792 48.1357 329.924 43.37L330.327 43.3812ZM330.229 43.5077L329.918 43.251C329.947 43.2161 329.975 43.1805 330.001 43.1442L330.327 43.3812L330.653 43.6181C330.616 43.6681 330.579 43.7168 330.539 43.7643L330.229 43.5077Z" fill="#278EFF"/>
</svg>
