<svg width="30" height="60" viewBox="0 0 30 60" fill="none" xmlns="http://www.w3.org/2000/svg">
<path d="M20.0555 20.0556C20.0555 9.20172 11.2568 0.402924 0.402912 0.402924V0.402924V28.8475H20.0555V20.0556Z" fill="#278EFF" stroke="#278EFF" stroke-width="0.805851"/>
<rect width="19.6526" height="2.12144" transform="matrix(-1 0 0 1 20.0556 28.8475)" fill="#278EFF" stroke="#278EFF" stroke-width="0.805851"/>
<path fill-rule="evenodd" clip-rule="evenodd" d="M19.6989 43.5076C19.933 42.2948 20.0556 41.0421 20.0556 39.7609V30.9689H0.402962V59.4135C5.16199 59.4135 9.52593 57.722 12.9263 54.9073C16.3187 57.1673 21.7584 59.3155 28.3304 58.1206C26.5203 57.3448 19.5384 52.6903 19.797 43.3811C19.7656 43.4243 19.7329 43.4664 19.6989 43.5076Z" fill="#278EFF"/>
<path d="M19.6989 43.5076L20.0095 43.7643L19.3032 43.4313L19.6989 43.5076ZM20.0556 30.9689V30.566H20.4585V30.9689H20.0556ZM0.402962 30.9689H3.62396e-05V30.566H0.402962V30.9689ZM0.402962 59.4135V59.8165H3.62396e-05V59.4135H0.402962ZM12.9263 54.9073L12.6694 54.5969L12.9003 54.4058L13.1497 54.5719L12.9263 54.9073ZM28.3304 58.1206L28.4891 57.7503L29.7195 58.2776L28.4025 58.517L28.3304 58.1206ZM19.797 43.3811L19.4711 43.1441L20.2359 42.0926L20.1998 43.3923L19.797 43.3811ZM20.0556 39.7609H20.4585C20.4585 41.0679 20.3334 42.3461 20.0945 43.584L19.6989 43.5076L19.3032 43.4313C19.5325 42.2434 19.6527 41.0164 19.6527 39.7609H20.0556ZM20.0556 30.9689H20.4585V39.7609H20.0556H19.6527V30.9689H20.0556ZM0.402962 30.9689V30.566H20.0556V30.9689V31.3719H0.402962V30.9689ZM0.402962 59.4135H3.62396e-05V30.9689H0.402962H0.805887V59.4135H0.402962ZM12.9263 54.9073L13.1832 55.2177C9.71327 58.0899 5.25921 59.8165 0.402962 59.8165V59.4135V59.0106C5.06477 59.0106 9.33859 57.354 12.6694 54.5969L12.9263 54.9073ZM28.3304 58.1206L28.4025 58.517C21.7021 59.7353 16.1577 57.5442 12.7029 55.2426L12.9263 54.9073L13.1497 54.5719C16.4797 56.7903 21.8146 58.8958 28.2583 57.7242L28.3304 58.1206ZM19.797 43.3811L20.1998 43.3923C20.0736 47.9357 21.712 51.3359 23.6026 53.6992C25.5011 56.0723 27.6458 57.3888 28.4891 57.7503L28.3304 58.1206L28.1717 58.4909C27.2049 58.0766 24.9536 56.6779 22.9733 54.2026C20.9851 51.7173 19.2619 48.1357 19.3942 43.3699L19.797 43.3811ZM19.6989 43.5076L19.3882 43.251C19.4171 43.2161 19.4447 43.1805 19.4711 43.1441L19.797 43.3811L20.1229 43.6181C20.0865 43.6681 20.0487 43.7168 20.0095 43.7643L19.6989 43.5076Z" fill="#278EFF"/>
</svg>
